#!OML:ASF F:\VICON\USERDATA\INSTALL\Justin_Nancy\Justin_Nancy.ASF
:FULLY-SPECIFIED
:DEGREES
413
root -12.7671 17.5233 18.6168 -1.06449 -45.5565 3.0834
lowerback 5.89505 -0.606315 -2.52921
upperback -0.116346 -0.922376 1.92567
thorax -3.35619 -0.40286 3.4947
lowerneck -14.2602 -2.71001 -9.84449
upperneck 23.4524 -2.62427 4.40498
head 10.0122 -1.65007 2.86086
rclavicle -4.73108e-014 7.15625e-015
rhumerus -33.4889 -12.8109 -78.2989
rradius 29.4616
rwrist 6.75204
rhand -13.2709 12.6499
rfingers 7.12502
rthumb 12.832 -16.9357
lclavicle -4.73108e-014 7.15625e-015
lhumerus -29.3835 14.4947 83.7115
lradius 23.8696
lwrist -10.7397
lhand -16.0594 25.097
lfingers 7.12502
lthumb 10.1428 54.8325
rfemur -23.9201 -3.4451 19.1956
rtibia 70.7837
rfoot -0.000452184 -5.34586
rtoes 6.24694
lfemur -10.8577 1.17968 -27.5633
ltibia 21.942
lfoot -10.2228 -3.59493
ltoes 10.3125
414
root -12.8502 17.4953 18.7166 -1.40668 -45.5046 3.66004
lowerback 5.65946 -0.684719 -2.97395
upperback 0.0219467 -1.0537 1.86717
thorax -3.06375 -0.46932 3.68938
lowerneck -14.471 -2.7275 -9.83486
upperneck 23.4936 -2.60301 4.30823
head 10.065 -1.64849 2.82712
rclavicle -5.40197e-014 1.11319e-014
rhumerus -33.412 -12.7854 -78.2202
rradius 29.2728
rwrist 6.50022
rhand -13.1453 13.9066
rfingers 7.12502
rthumb 12.9531 -15.6714
lclavicle -5.40197e-014 1.11319e-014
lhumerus -28.8989 14.5683 83.7842
lradius 24.0386
lwrist -11.004
lhand -15.9732 24.9278
lfingers 7.12502
lthumb 10.226 54.6592
rfemur -25.0159 -3.3114 18.7928
rtibia 70.4343
rfoot -1.63574 -4.83816
rtoes 3.46819
lfemur -10.7403 1.44727 -28.1171
ltibia 22.5506
lfoot -10.694 -3.58198
ltoes 10.3053
415
root -12.9354 17.4799 18.8079 -1.45629 -45.4251 4.04635
lowerback 5.52 -0.735417 -3.39381
upperback -0.0282979 -1.14368 1.89871
thorax -3.02134 -0.507583 3.96459
lowerneck -14.7376 -2.82092 -10.0299
upperneck 23.821 -2.69534 4.42471
head 10.247 -1.70052 2.89263
rclavicle 2.56929e-014 -7.95139e-015
rhumerus -33.2305 -12.7521 -78.384
rradius 29.3371
rwrist 5.89273
rhand -13.7505 11.8738
rfingers 7.12502
rthumb 12.3696 -17.7402
lclavicle 2.56929e-014 -7.95139e-015
lhumerus -28.5184 14.1949 84.0336
lradius 24.1464
lwrist -10.8834
lhand -16.3244 24.6177
lfingers 7.12502
lthumb 9.8872 54.3655
rfemur -26.2366 -3.26983 18.566
rtibia 69.8549
rfoot -3.97424 -3.55521
rtoes -2.308
lfemur -10.8039 1.45121 -28.4669
ltibia 23.083
lfoot -11.1508 -3.54892
ltoes 9.77974
416
root -13.0216 17.4664 18.8964 -1.56895 -45.7953 4.21786
lowerback 5.7632 -0.665709 -3.75854
upperback -0.179147 -1.07959 1.99625
thorax -3.31239 -0.459274 4.27587
lowerneck -14.4109 -2.81415 -10.0863
upperneck 23.7519 -2.72597 4.48247
head 10.1632 -1.71665 2.91904
rclavicle -3.33461e-014 1.82882e-014
rhumerus -33.3648 -14.0625 -77.5506
rradius 28.5064
rwrist 7.82342
rhand -13.113 13.9557
rfingers 7.12502
rthumb 12.9843 -15.6203
lclavicle -3.33461e-014 1.82882e-014
lhumerus -28.4605 13.6869 84.2185
lradius 24.2758
lwrist -10.5259
lhand -16.2922 24.8905
lfingers 7.12502
lthumb 9.91825 54.6369
rfemur -27.196 -2.67078 18.4926
rtibia 69.0989
rfoot -3.40883 -4.2604
rtoes 2.49275
lfemur -10.6207 1.20647 -28.5957
ltibia 23.5116
lfoot -11.6072 -2.91036
ltoes 9.41989
417
root -13.1031 17.4477 19.0022 -1.70128 -45.3186 4.29049
lowerback 5.94955 -0.961061 -3.77674
upperback -0.26847 -1.47938 2.0559
thorax -3.46738 -0.652002 4.38778
lowerneck -14.052 -2.668 -9.87332
upperneck 23.5936 -2.53154 4.16148
head 10.0148 -1.64612 2.79315
rclavicle -9.38264e-014 1.03368e-014
rhumerus -33.556 -13.5298 -77.6027
rradius 28.6088
rwrist 7.57738
rhand -13.0975 13.0758
rfingers 7.12502
rthumb 12.9992 -16.4992
lclavicle -9.38264e-014 1.03368e-014
lhumerus -28.416 13.5752 84.2831
lradius 24.367
lwrist -10.5605
lhand -15.8569 25.2237
lfingers 7.12502
lthumb 10.3382 54.9496
rfemur -27.7781 -2.8391 18.4107
rtibia 68.1619
rfoot -4.56435 -4.30697
rtoes 3.35736
lfemur -10.2424 0.781485 -28.7394
ltibia 23.9191
lfoot -12.2275 -2.69261
ltoes 8.74784
418
root -13.1905 17.422 19.1074 -2.30845 -44.9782 5.05547
lowerback 5.88256 -1.21318 -4.41665
upperback -0.202643 -1.858 2.04628
thorax -3.30324 -0.835299 4.76794
lowerneck -14.144 -2.46731 -9.94052
upperneck 23.6979 -2.19302 4.03582
head 10.0433 -1.51261 2.8045
rclavicle 1.59276e-013 -3.73715e-014
rhumerus -33.5579 -12.3985 -77.9084
rradius 28.8796
rwrist 6.76724
rhand -13.1306 12.4637
rfingers 7.12502
rthumb 12.9673 -17.1134
lclavicle 1.59276e-013 -3.73715e-014
lhumerus -28.1449 13.8188 84.3718
lradius 24.4435
lwrist -10.8231
lhand -15.9881 25.1707
lfingers 7.12502
lthumb 10.2116 54.9028
rfemur -28.4365 -3.11304 17.7906
rtibia 67.1214
rfoot -5.78353 -4.04831
rtoes 3.63774
lfemur -9.87095 0.870389 -29.4035
ltibia 24.3842
lfoot -13.0307 -2.80803
ltoes 8.20041
419
root -13.2759 17.3919 19.2004 -2.78964 -44.7063 5.83735
lowerback 5.77081 -1.2195 -4.96145
upperback -0.0845426 -1.90466 1.81142
thorax -3.10332 -0.859748 4.82812
lowerneck -14.3701 -2.60117 -9.85107
upperneck 23.6938 -2.41446 4.18766
head 10.1019 -1.58555 2.81427
rclavicle 1.14053e-013 7.95139e-016
rhumerus -33.5769 -11.9845 -78.3417
rradius 29.2678
rwrist 5.93217
rhand -13.713 11.5867
rfingers 7.12502
rthumb 12.4058 -18.0252
lclavicle 1.14053e-013 7.95139e-016
lhumerus -27.5357 13.1151 84.5044
lradius 24.547
lwrist -10.8863
lhand -16.6478 24.9481
lfingers 7.12502
lthumb 9.5752 54.7105
rfemur -29.2788 -3.23099 17.1941
rtibia 65.9638
rfoot -6.85303 -3.72998
rtoes 2.53672
lfemur -9.69498 0.925499 -30.04
ltibia 24.8743
lfoot -13.5369 -3.31389
ltoes 10.1839
420
root -13.3579 17.371 19.2902 -2.25972 -44.6411 5.38456
lowerback 5.71311 -1.1471 -4.58627
upperback -0.0697529 -1.78016 1.81095
thorax -3.0812 -0.804553 4.60323
lowerneck -14.5224 -2.667 -9.78455
upperneck 23.6651 -2.59331 4.53716
head 10.1356 -1.61826 2.90413
rclavicle -3.62782e-015 2.38542e-015
rhumerus -33.6073 -12.6452 -78.1866
rradius 29.2078
rwrist 6.29219
rhand -13.6293 11.9922
rfingers 7.12502
rthumb 12.4865 -17.6148
lclavicle -3.62782e-015 2.38542e-015
lhumerus -26.9412 12.1433 84.7108
lradius 24.6115
lwrist -10.6973
lhand -17.8535 24.7308
lfingers 7.12502
lthumb 8.41174 54.5432
rfemur -30.1143 -2.8708 17.6016
rtibia 64.5782
rfoot -7.442 -3.98248
rtoes 3.26146
lfemur -9.66935 0.880632 -29.7029
ltibia 25.2301
lfoot -13.8993 -3.61392
ltoes 11.3559
421
root -13.4381 17.3577 19.3835 -1.91443 -44.772 4.9111
lowerback 5.94164 -1.19673 -4.3582
upperback -0.117855 -1.83426 2.03176
thorax -3.25326 -0.827899 4.71777
lowerneck -14.4819 -2.60568 -9.94761
upperneck 23.4742 -2.48587 4.62724
head 10.054 -1.5686 2.97527
rclavicle -4.29375e-014 -3.97569e-015
rhumerus -33.7364 -12.6324 -77.9271
rradius 29.0856
rwrist 6.8706
rhand -13.5161 13.1986
rfingers 7.12502
rthumb 12.5956 -16.4016
lclavicle -4.29375e-014 -3.97569e-015
lhumerus -26.7088 11.9798 84.8809
lradius 24.7929
lwrist -10.413
lhand -18.2827 24.2381
lfingers 7.12502
lthumb 7.99753 54.0668
rfemur -30.6103 -2.28823 17.9744
rtibia 62.9498
rfoot -7.74381 -4.44282
rtoes 7.28997
lfemur -9.38905 0.845747 -29.3706
ltibia 25.5396
lfoot -14.3687 -3.3134
ltoes 11.2842
422
root -13.5235 17.3439 19.4806 -2.2213 -44.8058 5.13306
lowerback 6.18815 -1.24027 -4.61066
upperback -0.0303572 -1.91895 2.06079
thorax -3.28243 -0.86695 4.90483
lowerneck -14.5663 -2.52919 -9.74797
upperneck 23.3358 -2.35115 4.38212
head 10.0041 -1.51162 2.8695
rclavicle 1.63003e-014 -4.77083e-015
rhumerus -34.3324 -9.79587 -78.9486
rradius 30.7513
rwrist 4.05206
rhand -13.8673 12.6058
rfingers 7.12502
rthumb 12.257 -17.015
lclavicle 1.63003e-014 -4.77083e-015
lhumerus -26.3543 11.9453 84.9878
lradius 24.9575
lwrist -10.4073
lhand -18.0458 24.1648
lfingers 7.12502
lthumb 8.22615 53.9847
rfemur -30.8659 -1.80667 17.7925
rtibia 61.1169
rfoot -8.235 -4.66233
rtoes 8.69701
lfemur -8.86086 0.787369 -29.5806
ltibia 25.7632
lfoot -14.6392 -3.3812
ltoes 13.237
423
root -13.6127 17.3379 19.5781 -2.1139 -44.6837 5.04512
lowerback 6.11189 -1.30681 -4.53155
upperback 0.0237653 -1.99805 2.07902
thorax -3.17593 -0.912083 4.88133
lowerneck -14.0153 -2.72894 -10.3523
upperneck 22.7454 -2.69165 5.04513
head 9.73359 -1.63965 3.15587
rclavicle 1.13407e-013 7.95139e-016
rhumerus -35.4833 -6.23335 -80.2282
rradius 33.4417
rwrist 0.232121
rhand -13.86 10.6983
rfingers 7.12502
rthumb 12.2641 -18.9221
lclavicle 1.13407e-013 7.95139e-016
lhumerus -25.9996 11.5789 85.1224
lradius 25.0133
lwrist -10.5515
lhand -18.4045 24.2891
lfingers 7.12502
lthumb 7.87995 54.1222
rfemur -31.1918 -1.54499 17.8754
rtibia 59.0206
rfoot -8.54868 -4.74965
rtoes 7.69479
lfemur -8.4182 0.68784 -29.5539
ltibia 25.7953
lfoot -14.7682 -3.61557
ltoes 14.4582
424
root -13.6962 17.336 19.675 -1.83603 -44.6965 4.78763
lowerback 6.08047 -1.36647 -4.37834
upperback -0.0134142 -2.06196 2.2108
thorax -3.18987 -0.944482 4.93731
lowerneck -13.3406 -2.67625 -10.9085
upperneck 22.1614 -2.67477 5.57821
head 9.4135 -1.61644 3.43257
rclavicle -1.09332e-013 2.38542e-014
rhumerus -35.9393 -5.36963 -80.3579
rradius 34.2181
rwrist -0.435072
rhand -13.4224 9.88262
rfingers 7.12502
rthumb 12.686 -19.7121
lclavicle -1.09332e-013 2.38542e-014
lhumerus -25.8074 11.3953 85.2937
lradius 25.0841
lwrist -10.7782
lhand -19.112 24.2331
lfingers 7.12502
lthumb 7.19705 54.0907
rfemur -31.4856 -1.15565 18.0412
rtibia 56.7324
rfoot -8.4628 -4.94281
rtoes 8.46164
lfemur -7.92791 0.671743 -29.4161
ltibia 25.5808
lfoot -15.0638 -3.36316
ltoes 13.5421
425
root -13.7785 17.3377 19.7698 -1.52286 -44.5651 4.56621
lowerback 6.13212 -1.45543 -4.22651
upperback -0.0617657 -2.17088 2.2495
thorax -3.26036 -0.997859 4.90355
lowerneck -14.1564 -2.616 -10.1043
upperneck 22.8592 -2.50502 4.73506
head 9.77763 -1.56738 3.02924
rclavicle 8.24956e-015 -7.95139e-016
rhumerus -35.5659 -6.40344 -80.0908
rradius 33.4132
rwrist 0.417456
rhand -13.2841 10.3831
rfingers 7.12502
rthumb 12.8193 -19.2032
lclavicle 8.24956e-015 -7.95139e-016
lhumerus -25.5198 11.0315 85.3181
lradius 25.2402
lwrist -10.5868
lhand -18.9548 24.1471
lfingers 7.12502
lthumb 7.34878 53.9995
rfemur -31.7899 -1.0026 18.2307
rtibia 54.2662
rfoot -7.97533 -5.33747
rtoes 4.87861
lfemur -7.41284 0.453878 -29.3044
ltibia 25.1568
lfoot -15.2352 -3.13596
ltoes 12.4527
426
root -13.8708 17.3433 19.8631 -1.37882 -44.2828 4.86752
lowerback 6.02731 -1.4853 -4.51843
upperback -0.179575 -2.23057 2.15452
thorax -3.31009 -1.01893 4.97332
lowerneck -14.813 -2.66523 -9.4413
upperneck 23.4148 -2.57401 4.29288
head 10.091 -1.59602 2.75706
rclavicle -6.32135e-014 2.70347e-014
rhumerus -35.3612 -7.73743 -79.7316
rradius 32.7382
rwrist 1.34913
rhand -13.2325 11.1128
rfingers 7.12502
rthumb 12.8691 -18.4704
lclavicle -6.32135e-014 2.70347e-014
lhumerus -25.0794 9.97979 85.478
lradius 25.272
lwrist -9.91437
lhand -18.4923 24.1905
lfingers 7.12502
lthumb 7.79524 54.0268
rfemur -32.311 -1.07691 18.099
rtibia 51.6917
rfoot -7.55327 -5.76084
rtoes -1.72849
lfemur -7.04442 0.32453 -29.5577
ltibia 24.6712
lfoot -15.3229 -3.2666
ltoes 12.5091
427
root -13.9666 17.3421 19.9568 -1.76316 -44.2029 5.79995
lowerback 5.87242 -1.41642 -5.27088
upperback -0.247085 -2.19307 1.88598
thorax -3.28118 -0.988115 5.11134
lowerneck -14.628 -2.83149 -9.37847
upperneck 23.1487 -2.95568 4.76541
head 9.99296 -1.70867 2.86217
rclavicle -8.48811e-014 -7.15625e-015
rhumerus -35.3504 -8.96147 -79.3993
rradius 32.2935
rwrist 2.04232
rhand -13.2571 11.5743
rfingers 7.12502
rthumb 12.8453 -18.0105
lclavicle -8.48811e-014 -7.15625e-015
lhumerus -24.6365 9.12854 85.5473
lradius 25.2576
lwrist -9.57662
lhand -18.2675 24.2626
lfingers 7.12502
lthumb 8.0122 54.0908
rfemur -32.6721 -0.778959 17.3612
rtibia 49.1327
rfoot -7.45596 -5.96407
rtoes -4.61419
lfemur -6.57697 0.559464 -30.2796
ltibia 24.2149
lfoot -15.5367 -3.40583
ltoes 11.5631
